<mxfile host="app.diagrams.net" modified="2021-10-04T07:03:08.212Z" agent="5.0 (Windows)" etag="hMoBDDDYhNzw8zPhLad-" version="15.4.1" type="github">
  <diagram id="gCqcuao5SEEiPJ4p27xT" name="Page-1">
    <mxGraphModel dx="4405" dy="3108" grid="1" gridSize="10" guides="1" tooltips="1" connect="1" arrows="1" fold="1" page="1" pageScale="1" pageWidth="850" pageHeight="1100" background="#FFFFFF" math="0" shadow="0">
      <root>
        <mxCell id="0" />
        <mxCell id="1" parent="0" />
        <mxCell id="4nAqYtcEqPQkLTeRdLgU-2" value="Edit Sample Menu" style="swimlane;fontStyle=0;childLayout=stackLayout;horizontal=1;startSize=30;horizontalStack=0;resizeParent=1;resizeParentMax=0;resizeLast=0;collapsible=1;marginBottom=0;" parent="1" vertex="1">
          <mxGeometry x="660" y="140" width="140" height="210" as="geometry" />
        </mxCell>
        <mxCell id="4nAqYtcEqPQkLTeRdLgU-109" value="Sample ID" style="text;html=1;strokeColor=none;fillColor=none;align=center;verticalAlign=middle;whiteSpace=wrap;rounded=0;" parent="4nAqYtcEqPQkLTeRdLgU-2" vertex="1">
          <mxGeometry y="30" width="140" height="30" as="geometry" />
        </mxCell>
        <mxCell id="4nAqYtcEqPQkLTeRdLgU-110" value="Name" style="text;html=1;strokeColor=none;fillColor=none;align=center;verticalAlign=middle;whiteSpace=wrap;rounded=0;" parent="4nAqYtcEqPQkLTeRdLgU-2" vertex="1">
          <mxGeometry y="60" width="140" height="30" as="geometry" />
        </mxCell>
        <mxCell id="4nAqYtcEqPQkLTeRdLgU-111" value="Type" style="text;html=1;strokeColor=none;fillColor=none;align=center;verticalAlign=middle;whiteSpace=wrap;rounded=0;" parent="4nAqYtcEqPQkLTeRdLgU-2" vertex="1">
          <mxGeometry y="90" width="140" height="30" as="geometry" />
        </mxCell>
        <mxCell id="4nAqYtcEqPQkLTeRdLgU-112" value="Location" style="text;html=1;strokeColor=none;fillColor=none;align=center;verticalAlign=middle;whiteSpace=wrap;rounded=0;" parent="4nAqYtcEqPQkLTeRdLgU-2" vertex="1">
          <mxGeometry y="120" width="140" height="30" as="geometry" />
        </mxCell>
        <mxCell id="4nAqYtcEqPQkLTeRdLgU-113" value="Submitted By" style="text;html=1;strokeColor=none;fillColor=none;align=center;verticalAlign=middle;whiteSpace=wrap;rounded=0;" parent="4nAqYtcEqPQkLTeRdLgU-2" vertex="1">
          <mxGeometry y="150" width="140" height="30" as="geometry" />
        </mxCell>
        <mxCell id="4nAqYtcEqPQkLTeRdLgU-114" value="Image" style="text;html=1;strokeColor=none;fillColor=none;align=center;verticalAlign=middle;whiteSpace=wrap;rounded=0;" parent="4nAqYtcEqPQkLTeRdLgU-2" vertex="1">
          <mxGeometry y="180" width="140" height="30" as="geometry" />
        </mxCell>
        <mxCell id="4nAqYtcEqPQkLTeRdLgU-193" style="edgeStyle=orthogonalEdgeStyle;rounded=0;orthogonalLoop=1;jettySize=auto;html=1;dashed=1;startArrow=none;startFill=0;" parent="1" source="4nAqYtcEqPQkLTeRdLgU-6" target="4nAqYtcEqPQkLTeRdLgU-186" edge="1">
          <mxGeometry relative="1" as="geometry">
            <Array as="points">
              <mxPoint x="640" y="690" />
              <mxPoint x="640" y="720" />
            </Array>
          </mxGeometry>
        </mxCell>
        <mxCell id="4nAqYtcEqPQkLTeRdLgU-6" value="Create Issue Menu" style="swimlane;fontStyle=0;childLayout=stackLayout;horizontal=1;startSize=30;horizontalStack=0;resizeParent=1;resizeParentMax=0;resizeLast=0;collapsible=1;marginBottom=0;" parent="1" vertex="1">
          <mxGeometry x="460" y="615" width="140" height="90" as="geometry" />
        </mxCell>
        <mxCell id="4nAqYtcEqPQkLTeRdLgU-65" value="Issue Type" style="text;html=1;strokeColor=none;fillColor=none;align=center;verticalAlign=middle;whiteSpace=wrap;rounded=0;" parent="4nAqYtcEqPQkLTeRdLgU-6" vertex="1">
          <mxGeometry y="30" width="140" height="30" as="geometry" />
        </mxCell>
        <mxCell id="4nAqYtcEqPQkLTeRdLgU-203" value="Issue" style="text;html=1;strokeColor=none;fillColor=none;align=center;verticalAlign=middle;whiteSpace=wrap;rounded=0;" parent="4nAqYtcEqPQkLTeRdLgU-6" vertex="1">
          <mxGeometry y="60" width="140" height="30" as="geometry" />
        </mxCell>
        <mxCell id="4nAqYtcEqPQkLTeRdLgU-20" value="Main View" style="swimlane;fontStyle=0;childLayout=stackLayout;horizontal=1;startSize=30;horizontalStack=0;resizeParent=1;resizeParentMax=0;resizeLast=0;collapsible=1;marginBottom=0;" parent="1" vertex="1">
          <mxGeometry x="30" y="170" width="250" height="390" as="geometry">
            <mxRectangle x="170" y="250" width="90" height="30" as="alternateBounds" />
          </mxGeometry>
        </mxCell>
        <mxCell id="4nAqYtcEqPQkLTeRdLgU-25" value="View Samples Table" style="text;html=1;strokeColor=none;fillColor=none;align=center;verticalAlign=middle;whiteSpace=wrap;rounded=0;" parent="4nAqYtcEqPQkLTeRdLgU-20" vertex="1">
          <mxGeometry y="30" width="250" height="30" as="geometry" />
        </mxCell>
        <mxCell id="4nAqYtcEqPQkLTeRdLgU-69" value="Add Sample" style="swimlane;fontStyle=0;childLayout=stackLayout;horizontal=1;startSize=30;horizontalStack=0;resizeParent=1;resizeParentMax=0;resizeLast=0;collapsible=1;marginBottom=0;align=left;html=1;" parent="4nAqYtcEqPQkLTeRdLgU-20" vertex="1">
          <mxGeometry y="60" width="250" height="120" as="geometry" />
        </mxCell>
        <mxCell id="4nAqYtcEqPQkLTeRdLgU-70" value="Rock&lt;span style=&quot;white-space: pre&quot;&gt;&lt;/span&gt;&lt;span style=&quot;white-space: pre&quot;&gt;&lt;/span&gt;" style="text;strokeColor=none;fillColor=none;align=left;verticalAlign=middle;spacingLeft=4;spacingRight=4;overflow=hidden;points=[[0,0.5],[1,0.5]];portConstraint=eastwest;rotatable=0;html=1;" parent="4nAqYtcEqPQkLTeRdLgU-69" vertex="1">
          <mxGeometry y="30" width="250" height="30" as="geometry" />
        </mxCell>
        <mxCell id="4nAqYtcEqPQkLTeRdLgU-71" value="Fossil" style="text;strokeColor=none;fillColor=none;align=left;verticalAlign=middle;spacingLeft=4;spacingRight=4;overflow=hidden;points=[[0,0.5],[1,0.5]];portConstraint=eastwest;rotatable=0;html=1;" parent="4nAqYtcEqPQkLTeRdLgU-69" vertex="1">
          <mxGeometry y="60" width="250" height="30" as="geometry" />
        </mxCell>
        <mxCell id="4nAqYtcEqPQkLTeRdLgU-72" value="Mineral" style="text;strokeColor=none;fillColor=none;align=left;verticalAlign=middle;spacingLeft=4;spacingRight=4;overflow=hidden;points=[[0,0.5],[1,0.5]];portConstraint=eastwest;rotatable=0;html=1;" parent="4nAqYtcEqPQkLTeRdLgU-69" vertex="1">
          <mxGeometry y="90" width="250" height="30" as="geometry" />
        </mxCell>
        <mxCell id="4nAqYtcEqPQkLTeRdLgU-80" value="Edit Sample" style="text;html=1;strokeColor=none;fillColor=none;align=center;verticalAlign=middle;whiteSpace=wrap;rounded=0;" parent="4nAqYtcEqPQkLTeRdLgU-20" vertex="1">
          <mxGeometry y="180" width="250" height="30" as="geometry" />
        </mxCell>
        <mxCell id="4nAqYtcEqPQkLTeRdLgU-82" value="Delete Sample" style="text;html=1;strokeColor=none;fillColor=none;align=center;verticalAlign=middle;whiteSpace=wrap;rounded=0;" parent="4nAqYtcEqPQkLTeRdLgU-20" vertex="1">
          <mxGeometry y="210" width="250" height="30" as="geometry" />
        </mxCell>
        <mxCell id="4nAqYtcEqPQkLTeRdLgU-27" value="Sort Samples" style="text;html=1;strokeColor=none;fillColor=none;align=center;verticalAlign=middle;whiteSpace=wrap;rounded=0;" parent="4nAqYtcEqPQkLTeRdLgU-20" vertex="1">
          <mxGeometry y="240" width="250" height="30" as="geometry" />
        </mxCell>
        <mxCell id="4nAqYtcEqPQkLTeRdLgU-28" value="Search/Filter Samples" style="text;html=1;strokeColor=none;fillColor=none;align=center;verticalAlign=middle;whiteSpace=wrap;rounded=0;" parent="4nAqYtcEqPQkLTeRdLgU-20" vertex="1">
          <mxGeometry y="270" width="250" height="30" as="geometry" />
        </mxCell>
        <mxCell id="4nAqYtcEqPQkLTeRdLgU-29" value="Report Issue" style="text;html=1;strokeColor=none;fillColor=none;align=center;verticalAlign=middle;whiteSpace=wrap;rounded=0;" parent="4nAqYtcEqPQkLTeRdLgU-20" vertex="1">
          <mxGeometry y="300" width="250" height="30" as="geometry" />
        </mxCell>
        <mxCell id="PArua5RoQVsWphFj8Fam-1" value="View Image" style="text;html=1;strokeColor=none;fillColor=none;align=center;verticalAlign=middle;whiteSpace=wrap;rounded=0;" vertex="1" parent="4nAqYtcEqPQkLTeRdLgU-20">
          <mxGeometry y="330" width="250" height="30" as="geometry" />
        </mxCell>
        <mxCell id="4nAqYtcEqPQkLTeRdLgU-30" value="View Issues" style="text;html=1;strokeColor=none;fillColor=none;align=center;verticalAlign=middle;whiteSpace=wrap;rounded=0;" parent="4nAqYtcEqPQkLTeRdLgU-20" vertex="1">
          <mxGeometry y="360" width="250" height="30" as="geometry" />
        </mxCell>
        <mxCell id="4nAqYtcEqPQkLTeRdLgU-170" style="edgeStyle=orthogonalEdgeStyle;rounded=0;orthogonalLoop=1;jettySize=auto;html=1;entryX=0;entryY=0.5;entryDx=0;entryDy=0;dashed=1;startArrow=none;startFill=0;" parent="1" source="4nAqYtcEqPQkLTeRdLgU-31" target="4nAqYtcEqPQkLTeRdLgU-165" edge="1">
          <mxGeometry relative="1" as="geometry" />
        </mxCell>
        <mxCell id="4nAqYtcEqPQkLTeRdLgU-171" style="edgeStyle=orthogonalEdgeStyle;rounded=0;orthogonalLoop=1;jettySize=auto;html=1;dashed=1;startArrow=none;startFill=0;entryX=0.5;entryY=0;entryDx=0;entryDy=0;" parent="1" source="4nAqYtcEqPQkLTeRdLgU-31" target="4nAqYtcEqPQkLTeRdLgU-169" edge="1">
          <mxGeometry relative="1" as="geometry">
            <mxPoint x="410" y="-40" as="targetPoint" />
            <Array as="points">
              <mxPoint x="1020" y="30" />
            </Array>
          </mxGeometry>
        </mxCell>
        <mxCell id="4nAqYtcEqPQkLTeRdLgU-31" value="Add Sample Menu" style="swimlane;fontStyle=0;childLayout=stackLayout;horizontal=1;startSize=30;horizontalStack=0;resizeParent=1;resizeParentMax=0;resizeLast=0;collapsible=1;marginBottom=0;" parent="1" vertex="1">
          <mxGeometry x="490" y="-110" width="140" height="210" as="geometry" />
        </mxCell>
        <mxCell id="4nAqYtcEqPQkLTeRdLgU-108" value="Sample ID" style="text;html=1;strokeColor=none;fillColor=none;align=center;verticalAlign=middle;whiteSpace=wrap;rounded=0;" parent="4nAqYtcEqPQkLTeRdLgU-31" vertex="1">
          <mxGeometry y="30" width="140" height="30" as="geometry" />
        </mxCell>
        <mxCell id="4nAqYtcEqPQkLTeRdLgU-39" value="Name" style="text;html=1;strokeColor=none;fillColor=none;align=center;verticalAlign=middle;whiteSpace=wrap;rounded=0;" parent="4nAqYtcEqPQkLTeRdLgU-31" vertex="1">
          <mxGeometry y="60" width="140" height="30" as="geometry" />
        </mxCell>
        <mxCell id="4nAqYtcEqPQkLTeRdLgU-41" value="Type" style="text;html=1;strokeColor=none;fillColor=none;align=center;verticalAlign=middle;whiteSpace=wrap;rounded=0;" parent="4nAqYtcEqPQkLTeRdLgU-31" vertex="1">
          <mxGeometry y="90" width="140" height="30" as="geometry" />
        </mxCell>
        <mxCell id="4nAqYtcEqPQkLTeRdLgU-42" value="Location" style="text;html=1;strokeColor=none;fillColor=none;align=center;verticalAlign=middle;whiteSpace=wrap;rounded=0;" parent="4nAqYtcEqPQkLTeRdLgU-31" vertex="1">
          <mxGeometry y="120" width="140" height="30" as="geometry" />
        </mxCell>
        <mxCell id="4nAqYtcEqPQkLTeRdLgU-43" value="Submitted By" style="text;html=1;strokeColor=none;fillColor=none;align=center;verticalAlign=middle;whiteSpace=wrap;rounded=0;" parent="4nAqYtcEqPQkLTeRdLgU-31" vertex="1">
          <mxGeometry y="150" width="140" height="30" as="geometry" />
        </mxCell>
        <mxCell id="4nAqYtcEqPQkLTeRdLgU-38" value="Image" style="text;html=1;strokeColor=none;fillColor=none;align=center;verticalAlign=middle;whiteSpace=wrap;rounded=0;" parent="4nAqYtcEqPQkLTeRdLgU-31" vertex="1">
          <mxGeometry y="180" width="140" height="30" as="geometry" />
        </mxCell>
        <mxCell id="4nAqYtcEqPQkLTeRdLgU-60" style="edgeStyle=orthogonalEdgeStyle;rounded=0;orthogonalLoop=1;jettySize=auto;html=1;entryX=0;entryY=0.25;entryDx=0;entryDy=0;" parent="1" source="4nAqYtcEqPQkLTeRdLgU-58" target="4nAqYtcEqPQkLTeRdLgU-27" edge="1">
          <mxGeometry relative="1" as="geometry" />
        </mxCell>
        <object label="User" id="4nAqYtcEqPQkLTeRdLgU-58">
          <mxCell style="shape=umlActor;verticalLabelPosition=bottom;verticalAlign=top;html=1;outlineConnect=0;" parent="1" vertex="1">
            <mxGeometry x="-130" y="325" width="30" height="50" as="geometry" />
          </mxCell>
        </object>
        <mxCell id="4nAqYtcEqPQkLTeRdLgU-77" style="edgeStyle=orthogonalEdgeStyle;rounded=0;orthogonalLoop=1;jettySize=auto;html=1;entryX=0.014;entryY=0.057;entryDx=0;entryDy=0;startArrow=none;startFill=0;entryPerimeter=0;" parent="1" source="4nAqYtcEqPQkLTeRdLgU-69" target="4nAqYtcEqPQkLTeRdLgU-31" edge="1">
          <mxGeometry relative="1" as="geometry">
            <Array as="points">
              <mxPoint x="370" y="290" />
              <mxPoint x="370" y="-98" />
            </Array>
          </mxGeometry>
        </mxCell>
        <mxCell id="4nAqYtcEqPQkLTeRdLgU-79" style="edgeStyle=orthogonalEdgeStyle;rounded=0;orthogonalLoop=1;jettySize=auto;html=1;entryX=-0.007;entryY=0.133;entryDx=0;entryDy=0;startArrow=classic;startFill=1;entryPerimeter=0;" parent="1" source="4nAqYtcEqPQkLTeRdLgU-29" target="4nAqYtcEqPQkLTeRdLgU-6" edge="1">
          <mxGeometry relative="1" as="geometry" />
        </mxCell>
        <mxCell id="4nAqYtcEqPQkLTeRdLgU-87" value="Delete Sample Confirmation Menu" style="swimlane;fontStyle=0;childLayout=stackLayout;horizontal=1;startSize=30;horizontalStack=0;resizeParent=1;resizeParentMax=0;resizeLast=0;collapsible=1;marginBottom=0;align=left;html=1;" parent="1" vertex="1">
          <mxGeometry x="630" y="360" width="200" height="90" as="geometry" />
        </mxCell>
        <mxCell id="4nAqYtcEqPQkLTeRdLgU-88" value="Delete" style="text;strokeColor=none;fillColor=none;align=left;verticalAlign=middle;spacingLeft=4;spacingRight=4;overflow=hidden;points=[[0,0.5],[1,0.5]];portConstraint=eastwest;rotatable=0;html=1;" parent="4nAqYtcEqPQkLTeRdLgU-87" vertex="1">
          <mxGeometry y="30" width="200" height="30" as="geometry" />
        </mxCell>
        <mxCell id="4nAqYtcEqPQkLTeRdLgU-89" value="Cancel" style="text;strokeColor=none;fillColor=none;align=left;verticalAlign=middle;spacingLeft=4;spacingRight=4;overflow=hidden;points=[[0,0.5],[1,0.5]];portConstraint=eastwest;rotatable=0;html=1;" parent="4nAqYtcEqPQkLTeRdLgU-87" vertex="1">
          <mxGeometry y="60" width="200" height="30" as="geometry" />
        </mxCell>
        <mxCell id="4nAqYtcEqPQkLTeRdLgU-91" style="edgeStyle=orthogonalEdgeStyle;rounded=0;orthogonalLoop=1;jettySize=auto;html=1;entryX=-0.002;entryY=0.163;entryDx=0;entryDy=0;entryPerimeter=0;startArrow=classic;startFill=1;" parent="1" source="4nAqYtcEqPQkLTeRdLgU-82" target="4nAqYtcEqPQkLTeRdLgU-87" edge="1">
          <mxGeometry relative="1" as="geometry" />
        </mxCell>
        <mxCell id="4nAqYtcEqPQkLTeRdLgU-102" value="Sort " style="swimlane;fontStyle=0;childLayout=stackLayout;horizontal=1;startSize=30;horizontalStack=0;resizeParent=1;resizeParentMax=0;resizeLast=0;collapsible=1;marginBottom=0;align=left;html=1;" parent="1" vertex="1">
          <mxGeometry x="950" y="410" width="140" height="90" as="geometry" />
        </mxCell>
        <mxCell id="4nAqYtcEqPQkLTeRdLgU-106" value="Ascending" style="text;html=1;strokeColor=none;fillColor=none;align=center;verticalAlign=middle;whiteSpace=wrap;rounded=0;" parent="4nAqYtcEqPQkLTeRdLgU-102" vertex="1">
          <mxGeometry y="30" width="140" height="30" as="geometry" />
        </mxCell>
        <mxCell id="4nAqYtcEqPQkLTeRdLgU-107" value="Descending" style="text;html=1;strokeColor=none;fillColor=none;align=center;verticalAlign=middle;whiteSpace=wrap;rounded=0;" parent="4nAqYtcEqPQkLTeRdLgU-102" vertex="1">
          <mxGeometry y="60" width="140" height="30" as="geometry" />
        </mxCell>
        <mxCell id="4nAqYtcEqPQkLTeRdLgU-115" style="edgeStyle=orthogonalEdgeStyle;rounded=0;orthogonalLoop=1;jettySize=auto;html=1;entryX=-0.001;entryY=0.103;entryDx=0;entryDy=0;startArrow=classic;startFill=1;entryPerimeter=0;" parent="1" source="4nAqYtcEqPQkLTeRdLgU-80" target="4nAqYtcEqPQkLTeRdLgU-2" edge="1">
          <mxGeometry relative="1" as="geometry" />
        </mxCell>
        <mxCell id="4nAqYtcEqPQkLTeRdLgU-116" value="View Issues Menu" style="swimlane;fontStyle=0;childLayout=stackLayout;horizontal=1;startSize=30;horizontalStack=0;resizeParent=1;resizeParentMax=0;resizeLast=0;collapsible=1;marginBottom=0;align=left;html=1;" parent="1" vertex="1">
          <mxGeometry x="440" y="780" width="140" height="90" as="geometry" />
        </mxCell>
        <mxCell id="4nAqYtcEqPQkLTeRdLgU-117" value="View" style="text;strokeColor=none;fillColor=none;align=left;verticalAlign=middle;spacingLeft=4;spacingRight=4;overflow=hidden;points=[[0,0.5],[1,0.5]];portConstraint=eastwest;rotatable=0;html=1;" parent="4nAqYtcEqPQkLTeRdLgU-116" vertex="1">
          <mxGeometry y="30" width="140" height="30" as="geometry" />
        </mxCell>
        <mxCell id="4nAqYtcEqPQkLTeRdLgU-118" value="Delete Issue" style="text;strokeColor=none;fillColor=none;align=left;verticalAlign=middle;spacingLeft=4;spacingRight=4;overflow=hidden;points=[[0,0.5],[1,0.5]];portConstraint=eastwest;rotatable=0;html=1;" parent="4nAqYtcEqPQkLTeRdLgU-116" vertex="1">
          <mxGeometry y="60" width="140" height="30" as="geometry" />
        </mxCell>
        <mxCell id="4nAqYtcEqPQkLTeRdLgU-120" style="edgeStyle=orthogonalEdgeStyle;rounded=0;orthogonalLoop=1;jettySize=auto;html=1;entryX=-0.029;entryY=0.9;entryDx=0;entryDy=0;entryPerimeter=0;startArrow=classic;startFill=1;" parent="1" source="4nAqYtcEqPQkLTeRdLgU-30" target="4nAqYtcEqPQkLTeRdLgU-117" edge="1">
          <mxGeometry relative="1" as="geometry" />
        </mxCell>
        <mxCell id="4nAqYtcEqPQkLTeRdLgU-122" style="edgeStyle=orthogonalEdgeStyle;rounded=0;orthogonalLoop=1;jettySize=auto;html=1;entryX=0.007;entryY=0.167;entryDx=0;entryDy=0;startArrow=classic;startFill=1;dashed=1;entryPerimeter=0;" parent="1" source="4nAqYtcEqPQkLTeRdLgU-27" target="4nAqYtcEqPQkLTeRdLgU-102" edge="1">
          <mxGeometry relative="1" as="geometry">
            <Array as="points">
              <mxPoint x="600" y="425" />
              <mxPoint x="600" y="470" />
              <mxPoint x="920" y="470" />
              <mxPoint x="920" y="425" />
            </Array>
          </mxGeometry>
        </mxCell>
        <mxCell id="4nAqYtcEqPQkLTeRdLgU-248" style="edgeStyle=orthogonalEdgeStyle;rounded=0;orthogonalLoop=1;jettySize=auto;html=1;dashed=1;startArrow=none;startFill=0;" parent="1" source="4nAqYtcEqPQkLTeRdLgU-123" target="4nAqYtcEqPQkLTeRdLgU-214" edge="1">
          <mxGeometry relative="1" as="geometry" />
        </mxCell>
        <mxCell id="4nAqYtcEqPQkLTeRdLgU-123" value="Search" style="swimlane;fontStyle=0;childLayout=stackLayout;horizontal=1;startSize=30;horizontalStack=0;resizeParent=1;resizeParentMax=0;resizeLast=0;collapsible=1;marginBottom=0;align=left;html=1;" parent="1" vertex="1">
          <mxGeometry x="880" y="520" width="140" height="90" as="geometry" />
        </mxCell>
        <mxCell id="4nAqYtcEqPQkLTeRdLgU-124" value="Category" style="text;strokeColor=none;fillColor=none;align=left;verticalAlign=middle;spacingLeft=4;spacingRight=4;overflow=hidden;points=[[0,0.5],[1,0.5]];portConstraint=eastwest;rotatable=0;html=1;" parent="4nAqYtcEqPQkLTeRdLgU-123" vertex="1">
          <mxGeometry y="30" width="140" height="30" as="geometry" />
        </mxCell>
        <mxCell id="4nAqYtcEqPQkLTeRdLgU-125" value="Omni-Search" style="text;strokeColor=none;fillColor=none;align=left;verticalAlign=middle;spacingLeft=4;spacingRight=4;overflow=hidden;points=[[0,0.5],[1,0.5]];portConstraint=eastwest;rotatable=0;html=1;" parent="4nAqYtcEqPQkLTeRdLgU-123" vertex="1">
          <mxGeometry y="60" width="140" height="30" as="geometry" />
        </mxCell>
        <mxCell id="4nAqYtcEqPQkLTeRdLgU-128" style="edgeStyle=orthogonalEdgeStyle;rounded=0;orthogonalLoop=1;jettySize=auto;html=1;entryX=-0.017;entryY=0.132;entryDx=0;entryDy=0;startArrow=classic;startFill=1;exitX=1;exitY=0.5;exitDx=0;exitDy=0;dashed=1;entryPerimeter=0;" parent="1" source="4nAqYtcEqPQkLTeRdLgU-28" target="4nAqYtcEqPQkLTeRdLgU-123" edge="1">
          <mxGeometry relative="1" as="geometry">
            <Array as="points">
              <mxPoint x="440" y="455" />
              <mxPoint x="440" y="490" />
              <mxPoint x="820" y="490" />
              <mxPoint x="820" y="532" />
            </Array>
          </mxGeometry>
        </mxCell>
        <mxCell id="4nAqYtcEqPQkLTeRdLgU-173" style="edgeStyle=orthogonalEdgeStyle;rounded=0;orthogonalLoop=1;jettySize=auto;html=1;entryX=0.5;entryY=0;entryDx=0;entryDy=0;startArrow=none;startFill=0;exitX=0.5;exitY=0;exitDx=0;exitDy=0;" parent="1" source="4nAqYtcEqPQkLTeRdLgU-165" target="4nAqYtcEqPQkLTeRdLgU-20" edge="1">
          <mxGeometry relative="1" as="geometry">
            <Array as="points">
              <mxPoint x="970" y="-160" />
              <mxPoint x="155" y="-160" />
            </Array>
          </mxGeometry>
        </mxCell>
        <mxCell id="4nAqYtcEqPQkLTeRdLgU-247" style="edgeStyle=orthogonalEdgeStyle;rounded=0;orthogonalLoop=1;jettySize=auto;html=1;dashed=1;startArrow=none;startFill=0;" parent="1" source="4nAqYtcEqPQkLTeRdLgU-165" target="4nAqYtcEqPQkLTeRdLgU-214" edge="1">
          <mxGeometry relative="1" as="geometry" />
        </mxCell>
        <mxCell id="4nAqYtcEqPQkLTeRdLgU-165" value="&lt;div align=&quot;center&quot;&gt;Submit&lt;/div&gt;" style="rounded=0;whiteSpace=wrap;html=1;align=center;" parent="1" vertex="1">
          <mxGeometry x="910" y="-80" width="120" height="60" as="geometry" />
        </mxCell>
        <mxCell id="4nAqYtcEqPQkLTeRdLgU-172" style="edgeStyle=orthogonalEdgeStyle;rounded=0;orthogonalLoop=1;jettySize=auto;html=1;startArrow=none;startFill=0;" parent="1" source="4nAqYtcEqPQkLTeRdLgU-169" target="4nAqYtcEqPQkLTeRdLgU-20" edge="1">
          <mxGeometry relative="1" as="geometry">
            <Array as="points">
              <mxPoint x="210" y="110" />
            </Array>
          </mxGeometry>
        </mxCell>
        <mxCell id="4nAqYtcEqPQkLTeRdLgU-169" value="Cancel" style="ellipse;whiteSpace=wrap;html=1;align=center;" parent="1" vertex="1">
          <mxGeometry x="960" y="50" width="120" height="80" as="geometry" />
        </mxCell>
        <mxCell id="4nAqYtcEqPQkLTeRdLgU-175" value="" style="group" parent="1" vertex="1" connectable="0">
          <mxGeometry x="2260" y="70" width="790" height="610" as="geometry" />
        </mxCell>
        <mxCell id="4nAqYtcEqPQkLTeRdLgU-167" value="" style="shape=cylinder3;whiteSpace=wrap;html=1;boundedLbl=1;backgroundOutline=1;size=15;align=center;" parent="4nAqYtcEqPQkLTeRdLgU-175" vertex="1">
          <mxGeometry width="790" height="610" as="geometry" />
        </mxCell>
        <mxCell id="4nAqYtcEqPQkLTeRdLgU-135" value="Samples" style="swimlane;fontStyle=0;childLayout=stackLayout;horizontal=1;startSize=30;horizontalStack=0;resizeParent=1;resizeParentMax=0;resizeLast=0;collapsible=1;marginBottom=0;align=left;html=1;" parent="4nAqYtcEqPQkLTeRdLgU-175" vertex="1">
          <mxGeometry x="110" y="155" width="140" height="240" as="geometry" />
        </mxCell>
        <mxCell id="4nAqYtcEqPQkLTeRdLgU-159" value="ID - Int" style="text;html=1;strokeColor=none;fillColor=none;align=center;verticalAlign=middle;whiteSpace=wrap;rounded=0;" parent="4nAqYtcEqPQkLTeRdLgU-135" vertex="1">
          <mxGeometry y="30" width="140" height="30" as="geometry" />
        </mxCell>
        <mxCell id="4nAqYtcEqPQkLTeRdLgU-141" value="Name - String" style="text;html=1;strokeColor=none;fillColor=none;align=center;verticalAlign=middle;whiteSpace=wrap;rounded=0;" parent="4nAqYtcEqPQkLTeRdLgU-135" vertex="1">
          <mxGeometry y="60" width="140" height="30" as="geometry" />
        </mxCell>
        <mxCell id="4nAqYtcEqPQkLTeRdLgU-143" value="Type - String" style="text;html=1;strokeColor=none;fillColor=none;align=center;verticalAlign=middle;whiteSpace=wrap;rounded=0;" parent="4nAqYtcEqPQkLTeRdLgU-135" vertex="1">
          <mxGeometry y="90" width="140" height="30" as="geometry" />
        </mxCell>
        <mxCell id="4nAqYtcEqPQkLTeRdLgU-142" value="Sample ID - String" style="text;html=1;strokeColor=none;fillColor=none;align=center;verticalAlign=middle;whiteSpace=wrap;rounded=0;" parent="4nAqYtcEqPQkLTeRdLgU-135" vertex="1">
          <mxGeometry y="120" width="140" height="30" as="geometry" />
        </mxCell>
        <mxCell id="4nAqYtcEqPQkLTeRdLgU-145" value="Submitted By - String" style="text;html=1;strokeColor=none;fillColor=none;align=center;verticalAlign=middle;whiteSpace=wrap;rounded=0;" parent="4nAqYtcEqPQkLTeRdLgU-135" vertex="1">
          <mxGeometry y="150" width="140" height="30" as="geometry" />
        </mxCell>
        <mxCell id="4nAqYtcEqPQkLTeRdLgU-144" value="Location - String" style="text;html=1;strokeColor=none;fillColor=none;align=center;verticalAlign=middle;whiteSpace=wrap;rounded=0;" parent="4nAqYtcEqPQkLTeRdLgU-135" vertex="1">
          <mxGeometry y="180" width="140" height="30" as="geometry" />
        </mxCell>
        <mxCell id="4nAqYtcEqPQkLTeRdLgU-146" value="Image - FK" style="text;html=1;strokeColor=none;fillColor=none;align=center;verticalAlign=middle;whiteSpace=wrap;rounded=0;" parent="4nAqYtcEqPQkLTeRdLgU-135" vertex="1">
          <mxGeometry y="210" width="140" height="30" as="geometry" />
        </mxCell>
        <mxCell id="4nAqYtcEqPQkLTeRdLgU-147" value="Images" style="swimlane;fontStyle=0;childLayout=stackLayout;horizontal=1;startSize=30;horizontalStack=0;resizeParent=1;resizeParentMax=0;resizeLast=0;collapsible=1;marginBottom=0;align=left;html=1;" parent="4nAqYtcEqPQkLTeRdLgU-175" vertex="1">
          <mxGeometry x="340" y="320" width="140" height="90" as="geometry" />
        </mxCell>
        <mxCell id="4nAqYtcEqPQkLTeRdLgU-157" value="ID - Int" style="text;html=1;strokeColor=none;fillColor=none;align=center;verticalAlign=middle;whiteSpace=wrap;rounded=0;" parent="4nAqYtcEqPQkLTeRdLgU-147" vertex="1">
          <mxGeometry y="30" width="140" height="30" as="geometry" />
        </mxCell>
        <mxCell id="4nAqYtcEqPQkLTeRdLgU-158" value="Image - LONGBLOB" style="text;html=1;strokeColor=none;fillColor=none;align=center;verticalAlign=middle;whiteSpace=wrap;rounded=0;" parent="4nAqYtcEqPQkLTeRdLgU-147" vertex="1">
          <mxGeometry y="60" width="140" height="30" as="geometry" />
        </mxCell>
        <mxCell id="4nAqYtcEqPQkLTeRdLgU-151" style="edgeStyle=orthogonalEdgeStyle;rounded=0;orthogonalLoop=1;jettySize=auto;html=1;entryX=0;entryY=0.5;entryDx=0;entryDy=0;startArrow=classic;startFill=1;" parent="4nAqYtcEqPQkLTeRdLgU-175" source="4nAqYtcEqPQkLTeRdLgU-146" target="4nAqYtcEqPQkLTeRdLgU-157" edge="1">
          <mxGeometry relative="1" as="geometry" />
        </mxCell>
        <mxCell id="4nAqYtcEqPQkLTeRdLgU-152" value="Issues" style="swimlane;fontStyle=0;childLayout=stackLayout;horizontal=1;startSize=30;horizontalStack=0;resizeParent=1;resizeParentMax=0;resizeLast=0;collapsible=1;marginBottom=0;align=left;html=1;" parent="4nAqYtcEqPQkLTeRdLgU-175" vertex="1">
          <mxGeometry x="510" y="150" width="140" height="120" as="geometry" />
        </mxCell>
        <mxCell id="4nAqYtcEqPQkLTeRdLgU-160" value="Issue Type - String" style="text;html=1;strokeColor=none;fillColor=none;align=center;verticalAlign=middle;whiteSpace=wrap;rounded=0;" parent="4nAqYtcEqPQkLTeRdLgU-152" vertex="1">
          <mxGeometry y="30" width="140" height="30" as="geometry" />
        </mxCell>
        <mxCell id="4nAqYtcEqPQkLTeRdLgU-161" value="Issue - String" style="text;html=1;strokeColor=none;fillColor=none;align=center;verticalAlign=middle;whiteSpace=wrap;rounded=0;" parent="4nAqYtcEqPQkLTeRdLgU-152" vertex="1">
          <mxGeometry y="60" width="140" height="30" as="geometry" />
        </mxCell>
        <mxCell id="4nAqYtcEqPQkLTeRdLgU-162" value="Submitted By - String" style="text;html=1;strokeColor=none;fillColor=none;align=center;verticalAlign=middle;whiteSpace=wrap;rounded=0;" parent="4nAqYtcEqPQkLTeRdLgU-152" vertex="1">
          <mxGeometry y="90" width="140" height="30" as="geometry" />
        </mxCell>
        <mxCell id="4nAqYtcEqPQkLTeRdLgU-184" style="edgeStyle=orthogonalEdgeStyle;rounded=0;orthogonalLoop=1;jettySize=auto;html=1;entryX=0.5;entryY=1;entryDx=0;entryDy=0;dashed=1;startArrow=none;startFill=0;" parent="1" source="4nAqYtcEqPQkLTeRdLgU-111" target="4nAqYtcEqPQkLTeRdLgU-165" edge="1">
          <mxGeometry relative="1" as="geometry">
            <Array as="points">
              <mxPoint x="1110" y="260" />
              <mxPoint x="1110" y="10" />
              <mxPoint x="970" y="10" />
            </Array>
          </mxGeometry>
        </mxCell>
        <mxCell id="4nAqYtcEqPQkLTeRdLgU-185" style="edgeStyle=orthogonalEdgeStyle;rounded=0;orthogonalLoop=1;jettySize=auto;html=1;dashed=1;startArrow=none;startFill=0;" parent="1" source="4nAqYtcEqPQkLTeRdLgU-111" edge="1">
          <mxGeometry relative="1" as="geometry">
            <mxPoint x="1019.9999999999995" y="140" as="targetPoint" />
          </mxGeometry>
        </mxCell>
        <mxCell id="4nAqYtcEqPQkLTeRdLgU-194" style="edgeStyle=orthogonalEdgeStyle;rounded=0;orthogonalLoop=1;jettySize=auto;html=1;entryX=0.5;entryY=1;entryDx=0;entryDy=0;dashed=1;startArrow=none;startFill=0;exitX=0.5;exitY=1;exitDx=0;exitDy=0;" parent="1" source="4nAqYtcEqPQkLTeRdLgU-186" target="4nAqYtcEqPQkLTeRdLgU-30" edge="1">
          <mxGeometry relative="1" as="geometry">
            <Array as="points">
              <mxPoint x="740" y="760" />
              <mxPoint x="190" y="760" />
              <mxPoint x="190" y="560" />
            </Array>
          </mxGeometry>
        </mxCell>
        <mxCell id="4nAqYtcEqPQkLTeRdLgU-249" style="edgeStyle=orthogonalEdgeStyle;rounded=0;orthogonalLoop=1;jettySize=auto;html=1;dashed=1;startArrow=none;startFill=0;" parent="1" source="4nAqYtcEqPQkLTeRdLgU-186" target="4nAqYtcEqPQkLTeRdLgU-214" edge="1">
          <mxGeometry relative="1" as="geometry">
            <Array as="points">
              <mxPoint x="1420" y="720" />
            </Array>
          </mxGeometry>
        </mxCell>
        <mxCell id="4nAqYtcEqPQkLTeRdLgU-186" value="Submit" style="rounded=0;whiteSpace=wrap;html=1;align=center;" parent="1" vertex="1">
          <mxGeometry x="680" y="690" width="120" height="60" as="geometry" />
        </mxCell>
        <mxCell id="4nAqYtcEqPQkLTeRdLgU-189" style="edgeStyle=orthogonalEdgeStyle;rounded=0;orthogonalLoop=1;jettySize=auto;html=1;dashed=1;startArrow=none;startFill=0;entryX=0.5;entryY=1;entryDx=0;entryDy=0;" parent="1" source="4nAqYtcEqPQkLTeRdLgU-187" target="4nAqYtcEqPQkLTeRdLgU-30" edge="1">
          <mxGeometry relative="1" as="geometry">
            <mxPoint x="199.99999999999955" y="540" as="targetPoint" />
            <Array as="points">
              <mxPoint x="240" y="600" />
              <mxPoint x="240" y="560" />
            </Array>
          </mxGeometry>
        </mxCell>
        <mxCell id="4nAqYtcEqPQkLTeRdLgU-187" value="Cancel" style="ellipse;whiteSpace=wrap;html=1;align=center;" parent="1" vertex="1">
          <mxGeometry x="670" y="560" width="120" height="80" as="geometry" />
        </mxCell>
        <mxCell id="4nAqYtcEqPQkLTeRdLgU-191" style="edgeStyle=orthogonalEdgeStyle;rounded=0;orthogonalLoop=1;jettySize=auto;html=1;exitX=1;exitY=0.75;exitDx=0;exitDy=0;entryX=0.5;entryY=1;entryDx=0;entryDy=0;dashed=1;startArrow=none;startFill=0;" parent="1" source="4nAqYtcEqPQkLTeRdLgU-65" target="4nAqYtcEqPQkLTeRdLgU-187" edge="1">
          <mxGeometry relative="1" as="geometry" />
        </mxCell>
        <mxCell id="4nAqYtcEqPQkLTeRdLgU-250" style="edgeStyle=orthogonalEdgeStyle;rounded=0;orthogonalLoop=1;jettySize=auto;html=1;dashed=1;startArrow=none;startFill=0;" parent="1" source="4nAqYtcEqPQkLTeRdLgU-195" target="4nAqYtcEqPQkLTeRdLgU-214" edge="1">
          <mxGeometry relative="1" as="geometry">
            <Array as="points">
              <mxPoint x="1460" y="825" />
            </Array>
          </mxGeometry>
        </mxCell>
        <mxCell id="4nAqYtcEqPQkLTeRdLgU-195" value="Delete Confirmation" style="swimlane;fontStyle=0;childLayout=stackLayout;horizontal=1;startSize=30;horizontalStack=0;resizeParent=1;resizeParentMax=0;resizeLast=0;collapsible=1;marginBottom=0;align=center;html=1;" parent="1" vertex="1">
          <mxGeometry x="660" y="780" width="140" height="90" as="geometry" />
        </mxCell>
        <mxCell id="4nAqYtcEqPQkLTeRdLgU-196" value="Delete" style="text;strokeColor=none;fillColor=none;align=left;verticalAlign=middle;spacingLeft=4;spacingRight=4;overflow=hidden;points=[[0,0.5],[1,0.5]];portConstraint=eastwest;rotatable=0;html=1;" parent="4nAqYtcEqPQkLTeRdLgU-195" vertex="1">
          <mxGeometry y="30" width="140" height="30" as="geometry" />
        </mxCell>
        <mxCell id="4nAqYtcEqPQkLTeRdLgU-197" value="Cancel" style="text;strokeColor=none;fillColor=none;align=left;verticalAlign=middle;spacingLeft=4;spacingRight=4;overflow=hidden;points=[[0,0.5],[1,0.5]];portConstraint=eastwest;rotatable=0;html=1;" parent="4nAqYtcEqPQkLTeRdLgU-195" vertex="1">
          <mxGeometry y="60" width="140" height="30" as="geometry" />
        </mxCell>
        <mxCell id="4nAqYtcEqPQkLTeRdLgU-202" style="edgeStyle=orthogonalEdgeStyle;rounded=0;orthogonalLoop=1;jettySize=auto;html=1;entryX=-0.009;entryY=0.157;entryDx=0;entryDy=0;entryPerimeter=0;dashed=1;startArrow=none;startFill=0;exitX=1;exitY=0.5;exitDx=0;exitDy=0;" parent="1" source="4nAqYtcEqPQkLTeRdLgU-118" target="4nAqYtcEqPQkLTeRdLgU-195" edge="1">
          <mxGeometry relative="1" as="geometry">
            <Array as="points">
              <mxPoint x="600" y="855" />
              <mxPoint x="600" y="794" />
            </Array>
          </mxGeometry>
        </mxCell>
        <mxCell id="4nAqYtcEqPQkLTeRdLgU-207" style="edgeStyle=orthogonalEdgeStyle;rounded=0;orthogonalLoop=1;jettySize=auto;html=1;entryX=0.5;entryY=1;entryDx=0;entryDy=0;startArrow=none;startFill=0;exitX=0;exitY=0.5;exitDx=0;exitDy=0;" parent="1" source="4nAqYtcEqPQkLTeRdLgU-197" target="4nAqYtcEqPQkLTeRdLgU-30" edge="1">
          <mxGeometry relative="1" as="geometry">
            <Array as="points">
              <mxPoint x="630" y="855" />
              <mxPoint x="630" y="920" />
              <mxPoint x="100" y="920" />
              <mxPoint x="100" y="560" />
            </Array>
          </mxGeometry>
        </mxCell>
        <mxCell id="4nAqYtcEqPQkLTeRdLgU-243" style="edgeStyle=orthogonalEdgeStyle;rounded=0;orthogonalLoop=1;jettySize=auto;html=1;entryX=0;entryY=0.5;entryDx=0;entryDy=0;entryPerimeter=0;startArrow=none;startFill=0;" parent="1" source="4nAqYtcEqPQkLTeRdLgU-210" target="4nAqYtcEqPQkLTeRdLgU-167" edge="1">
          <mxGeometry relative="1" as="geometry" />
        </mxCell>
        <mxCell id="4nAqYtcEqPQkLTeRdLgU-210" value="Repository" style="swimlane;fontStyle=0;childLayout=stackLayout;horizontal=1;startSize=30;horizontalStack=0;resizeParent=1;resizeParentMax=0;resizeLast=0;collapsible=1;marginBottom=0;align=center;html=1;" parent="1" vertex="1">
          <mxGeometry x="1690" y="180" width="280" height="360" as="geometry" />
        </mxCell>
        <mxCell id="4nAqYtcEqPQkLTeRdLgU-219" value="GetAllSamplesByName Asecnding" style="text;html=1;strokeColor=none;fillColor=none;align=center;verticalAlign=middle;whiteSpace=wrap;rounded=0;" parent="4nAqYtcEqPQkLTeRdLgU-210" vertex="1">
          <mxGeometry y="30" width="280" height="30" as="geometry" />
        </mxCell>
        <mxCell id="4nAqYtcEqPQkLTeRdLgU-220" value="GetAllSamplesByNameDescending" style="text;html=1;strokeColor=none;fillColor=none;align=center;verticalAlign=middle;whiteSpace=wrap;rounded=0;" parent="4nAqYtcEqPQkLTeRdLgU-210" vertex="1">
          <mxGeometry y="60" width="280" height="30" as="geometry" />
        </mxCell>
        <mxCell id="4nAqYtcEqPQkLTeRdLgU-221" value="GetSamplesByName" style="text;html=1;strokeColor=none;fillColor=none;align=center;verticalAlign=middle;whiteSpace=wrap;rounded=0;" parent="4nAqYtcEqPQkLTeRdLgU-210" vertex="1">
          <mxGeometry y="90" width="280" height="30" as="geometry" />
        </mxCell>
        <mxCell id="4nAqYtcEqPQkLTeRdLgU-222" value="GetSamplesByType" style="text;html=1;strokeColor=none;fillColor=none;align=center;verticalAlign=middle;whiteSpace=wrap;rounded=0;" parent="4nAqYtcEqPQkLTeRdLgU-210" vertex="1">
          <mxGeometry y="120" width="280" height="30" as="geometry" />
        </mxCell>
        <mxCell id="4nAqYtcEqPQkLTeRdLgU-223" value="GetSamplesBySubmittedBy" style="text;html=1;strokeColor=none;fillColor=none;align=center;verticalAlign=middle;whiteSpace=wrap;rounded=0;" parent="4nAqYtcEqPQkLTeRdLgU-210" vertex="1">
          <mxGeometry y="150" width="280" height="30" as="geometry" />
        </mxCell>
        <mxCell id="4nAqYtcEqPQkLTeRdLgU-227" value="GetSamplesByLocation" style="text;html=1;strokeColor=none;fillColor=none;align=center;verticalAlign=middle;whiteSpace=wrap;rounded=0;" parent="4nAqYtcEqPQkLTeRdLgU-210" vertex="1">
          <mxGeometry y="180" width="280" height="30" as="geometry" />
        </mxCell>
        <mxCell id="4nAqYtcEqPQkLTeRdLgU-226" value="UpdateSample" style="text;html=1;strokeColor=none;fillColor=none;align=center;verticalAlign=middle;whiteSpace=wrap;rounded=0;" parent="4nAqYtcEqPQkLTeRdLgU-210" vertex="1">
          <mxGeometry y="210" width="280" height="30" as="geometry" />
        </mxCell>
        <mxCell id="4nAqYtcEqPQkLTeRdLgU-225" value="RemoveSample" style="text;html=1;strokeColor=none;fillColor=none;align=center;verticalAlign=middle;whiteSpace=wrap;rounded=0;" parent="4nAqYtcEqPQkLTeRdLgU-210" vertex="1">
          <mxGeometry y="240" width="280" height="30" as="geometry" />
        </mxCell>
        <mxCell id="4nAqYtcEqPQkLTeRdLgU-224" value="AddSample" style="text;html=1;strokeColor=none;fillColor=none;align=center;verticalAlign=middle;whiteSpace=wrap;rounded=0;" parent="4nAqYtcEqPQkLTeRdLgU-210" vertex="1">
          <mxGeometry y="270" width="280" height="30" as="geometry" />
        </mxCell>
        <mxCell id="4nAqYtcEqPQkLTeRdLgU-241" value="AddIssue" style="text;html=1;strokeColor=none;fillColor=none;align=center;verticalAlign=middle;whiteSpace=wrap;rounded=0;" parent="4nAqYtcEqPQkLTeRdLgU-210" vertex="1">
          <mxGeometry y="300" width="280" height="30" as="geometry" />
        </mxCell>
        <mxCell id="4nAqYtcEqPQkLTeRdLgU-242" value="RemoveIssue" style="text;html=1;strokeColor=none;fillColor=none;align=center;verticalAlign=middle;whiteSpace=wrap;rounded=0;" parent="4nAqYtcEqPQkLTeRdLgU-210" vertex="1">
          <mxGeometry y="330" width="280" height="30" as="geometry" />
        </mxCell>
        <mxCell id="4nAqYtcEqPQkLTeRdLgU-244" style="edgeStyle=orthogonalEdgeStyle;rounded=0;orthogonalLoop=1;jettySize=auto;html=1;entryX=-0.007;entryY=0.047;entryDx=0;entryDy=0;entryPerimeter=0;startArrow=none;startFill=0;" parent="1" source="4nAqYtcEqPQkLTeRdLgU-214" target="4nAqYtcEqPQkLTeRdLgU-210" edge="1">
          <mxGeometry relative="1" as="geometry" />
        </mxCell>
        <mxCell id="4nAqYtcEqPQkLTeRdLgU-214" value="Business Logic" style="swimlane;fontStyle=0;childLayout=stackLayout;horizontal=1;startSize=30;horizontalStack=0;resizeParent=1;resizeParentMax=0;resizeLast=0;collapsible=1;marginBottom=0;align=center;html=1;" parent="1" vertex="1">
          <mxGeometry x="1270" y="170" width="260" height="300" as="geometry" />
        </mxCell>
        <mxCell id="4nAqYtcEqPQkLTeRdLgU-231" value="GetAllSamplesInAscendingOrder" style="text;html=1;strokeColor=none;fillColor=none;align=center;verticalAlign=middle;whiteSpace=wrap;rounded=0;" parent="4nAqYtcEqPQkLTeRdLgU-214" vertex="1">
          <mxGeometry y="30" width="260" height="30" as="geometry" />
        </mxCell>
        <mxCell id="4nAqYtcEqPQkLTeRdLgU-232" value="GetAllSamplesInDescendingOrder" style="text;html=1;strokeColor=none;fillColor=none;align=center;verticalAlign=middle;whiteSpace=wrap;rounded=0;" parent="4nAqYtcEqPQkLTeRdLgU-214" vertex="1">
          <mxGeometry y="60" width="260" height="30" as="geometry" />
        </mxCell>
        <mxCell id="4nAqYtcEqPQkLTeRdLgU-233" value="GetSamplesByCategory" style="text;html=1;strokeColor=none;fillColor=none;align=center;verticalAlign=middle;whiteSpace=wrap;rounded=0;" parent="4nAqYtcEqPQkLTeRdLgU-214" vertex="1">
          <mxGeometry y="90" width="260" height="30" as="geometry" />
        </mxCell>
        <mxCell id="4nAqYtcEqPQkLTeRdLgU-237" value="GetSamplesOmniSearch" style="text;html=1;strokeColor=none;fillColor=none;align=center;verticalAlign=middle;whiteSpace=wrap;rounded=0;" parent="4nAqYtcEqPQkLTeRdLgU-214" vertex="1">
          <mxGeometry y="120" width="260" height="30" as="geometry" />
        </mxCell>
        <mxCell id="4nAqYtcEqPQkLTeRdLgU-234" value="CreateSample" style="text;html=1;strokeColor=none;fillColor=none;align=center;verticalAlign=middle;whiteSpace=wrap;rounded=0;" parent="4nAqYtcEqPQkLTeRdLgU-214" vertex="1">
          <mxGeometry y="150" width="260" height="30" as="geometry" />
        </mxCell>
        <mxCell id="4nAqYtcEqPQkLTeRdLgU-235" value="UpdateSample" style="text;html=1;strokeColor=none;fillColor=none;align=center;verticalAlign=middle;whiteSpace=wrap;rounded=0;" parent="4nAqYtcEqPQkLTeRdLgU-214" vertex="1">
          <mxGeometry y="180" width="260" height="30" as="geometry" />
        </mxCell>
        <mxCell id="4nAqYtcEqPQkLTeRdLgU-236" value="DeleteSample" style="text;html=1;strokeColor=none;fillColor=none;align=center;verticalAlign=middle;whiteSpace=wrap;rounded=0;" parent="4nAqYtcEqPQkLTeRdLgU-214" vertex="1">
          <mxGeometry y="210" width="260" height="30" as="geometry" />
        </mxCell>
        <mxCell id="4nAqYtcEqPQkLTeRdLgU-240" value="CreateIssue" style="text;html=1;strokeColor=none;fillColor=none;align=center;verticalAlign=middle;whiteSpace=wrap;rounded=0;" parent="4nAqYtcEqPQkLTeRdLgU-214" vertex="1">
          <mxGeometry y="240" width="260" height="30" as="geometry" />
        </mxCell>
        <mxCell id="4nAqYtcEqPQkLTeRdLgU-218" value="Delete Issue" style="text;html=1;strokeColor=none;fillColor=none;align=center;verticalAlign=middle;whiteSpace=wrap;rounded=0;" parent="4nAqYtcEqPQkLTeRdLgU-214" vertex="1">
          <mxGeometry y="270" width="260" height="30" as="geometry" />
        </mxCell>
        <mxCell id="4nAqYtcEqPQkLTeRdLgU-245" style="edgeStyle=orthogonalEdgeStyle;rounded=0;orthogonalLoop=1;jettySize=auto;html=1;entryX=0.008;entryY=0.057;entryDx=0;entryDy=0;entryPerimeter=0;startArrow=none;startFill=0;dashed=1;" parent="1" source="4nAqYtcEqPQkLTeRdLgU-106" target="4nAqYtcEqPQkLTeRdLgU-214" edge="1">
          <mxGeometry relative="1" as="geometry" />
        </mxCell>
        <mxCell id="4nAqYtcEqPQkLTeRdLgU-246" style="edgeStyle=orthogonalEdgeStyle;rounded=0;orthogonalLoop=1;jettySize=auto;html=1;startArrow=none;startFill=0;dashed=1;" parent="1" source="4nAqYtcEqPQkLTeRdLgU-88" target="4nAqYtcEqPQkLTeRdLgU-214" edge="1">
          <mxGeometry relative="1" as="geometry">
            <Array as="points">
              <mxPoint x="1050" y="405" />
              <mxPoint x="1050" y="290" />
            </Array>
          </mxGeometry>
        </mxCell>
        <mxCell id="4nAqYtcEqPQkLTeRdLgU-252" value="Models" style="swimlane;align=center;html=1;" parent="1" vertex="1">
          <mxGeometry x="1120" y="-710" width="1610" height="510" as="geometry" />
        </mxCell>
        <mxCell id="4nAqYtcEqPQkLTeRdLgU-257" value="Sample" style="swimlane;align=center;html=1;" parent="4nAqYtcEqPQkLTeRdLgU-252" vertex="1">
          <mxGeometry x="60" y="50" width="590" height="420" as="geometry" />
        </mxCell>
        <mxCell id="4nAqYtcEqPQkLTeRdLgU-258" value="Type (Enumerated)" style="swimlane;fontStyle=0;childLayout=stackLayout;horizontal=1;startSize=30;horizontalStack=0;resizeParent=1;resizeParentMax=0;resizeLast=0;collapsible=1;marginBottom=0;align=center;html=1;" parent="4nAqYtcEqPQkLTeRdLgU-257" vertex="1">
          <mxGeometry x="25" y="60" width="140" height="120" as="geometry" />
        </mxCell>
        <mxCell id="4nAqYtcEqPQkLTeRdLgU-259" value="Rock" style="text;strokeColor=none;fillColor=none;align=left;verticalAlign=middle;spacingLeft=4;spacingRight=4;overflow=hidden;points=[[0,0.5],[1,0.5]];portConstraint=eastwest;rotatable=0;html=1;" parent="4nAqYtcEqPQkLTeRdLgU-258" vertex="1">
          <mxGeometry y="30" width="140" height="30" as="geometry" />
        </mxCell>
        <mxCell id="4nAqYtcEqPQkLTeRdLgU-260" value="Mineral" style="text;strokeColor=none;fillColor=none;align=left;verticalAlign=middle;spacingLeft=4;spacingRight=4;overflow=hidden;points=[[0,0.5],[1,0.5]];portConstraint=eastwest;rotatable=0;html=1;" parent="4nAqYtcEqPQkLTeRdLgU-258" vertex="1">
          <mxGeometry y="60" width="140" height="30" as="geometry" />
        </mxCell>
        <mxCell id="4nAqYtcEqPQkLTeRdLgU-261" value="Fossil" style="text;strokeColor=none;fillColor=none;align=left;verticalAlign=middle;spacingLeft=4;spacingRight=4;overflow=hidden;points=[[0,0.5],[1,0.5]];portConstraint=eastwest;rotatable=0;html=1;" parent="4nAqYtcEqPQkLTeRdLgU-258" vertex="1">
          <mxGeometry y="90" width="140" height="30" as="geometry" />
        </mxCell>
        <mxCell id="4nAqYtcEqPQkLTeRdLgU-266" value="ID" style="swimlane;fontStyle=0;childLayout=stackLayout;horizontal=1;startSize=30;horizontalStack=0;resizeParent=1;resizeParentMax=0;resizeLast=0;collapsible=1;marginBottom=0;align=center;html=1;" parent="4nAqYtcEqPQkLTeRdLgU-257" vertex="1">
          <mxGeometry x="190" y="60" width="140" height="60" as="geometry" />
        </mxCell>
        <mxCell id="4nAqYtcEqPQkLTeRdLgU-267" value="Int" style="text;strokeColor=none;fillColor=none;align=left;verticalAlign=middle;spacingLeft=4;spacingRight=4;overflow=hidden;points=[[0,0.5],[1,0.5]];portConstraint=eastwest;rotatable=0;html=1;" parent="4nAqYtcEqPQkLTeRdLgU-266" vertex="1">
          <mxGeometry y="30" width="140" height="30" as="geometry" />
        </mxCell>
        <mxCell id="4nAqYtcEqPQkLTeRdLgU-274" value="Location" style="swimlane;fontStyle=0;childLayout=stackLayout;horizontal=1;startSize=30;horizontalStack=0;resizeParent=1;resizeParentMax=0;resizeLast=0;collapsible=1;marginBottom=0;align=center;html=1;" parent="4nAqYtcEqPQkLTeRdLgU-257" vertex="1">
          <mxGeometry x="350" y="60" width="140" height="60" as="geometry" />
        </mxCell>
        <mxCell id="4nAqYtcEqPQkLTeRdLgU-275" value="String" style="text;strokeColor=none;fillColor=none;align=left;verticalAlign=middle;spacingLeft=4;spacingRight=4;overflow=hidden;points=[[0,0.5],[1,0.5]];portConstraint=eastwest;rotatable=0;html=1;" parent="4nAqYtcEqPQkLTeRdLgU-274" vertex="1">
          <mxGeometry y="30" width="140" height="30" as="geometry" />
        </mxCell>
        <mxCell id="4nAqYtcEqPQkLTeRdLgU-276" value="Name" style="swimlane;fontStyle=0;childLayout=stackLayout;horizontal=1;startSize=30;horizontalStack=0;resizeParent=1;resizeParentMax=0;resizeLast=0;collapsible=1;marginBottom=0;align=center;html=1;" parent="4nAqYtcEqPQkLTeRdLgU-257" vertex="1">
          <mxGeometry x="25" y="200" width="140" height="60" as="geometry" />
        </mxCell>
        <mxCell id="4nAqYtcEqPQkLTeRdLgU-277" value="String" style="text;strokeColor=none;fillColor=none;align=left;verticalAlign=middle;spacingLeft=4;spacingRight=4;overflow=hidden;points=[[0,0.5],[1,0.5]];portConstraint=eastwest;rotatable=0;html=1;" parent="4nAqYtcEqPQkLTeRdLgU-276" vertex="1">
          <mxGeometry y="30" width="140" height="30" as="geometry" />
        </mxCell>
        <mxCell id="4nAqYtcEqPQkLTeRdLgU-278" value="SampleID" style="swimlane;fontStyle=0;childLayout=stackLayout;horizontal=1;startSize=30;horizontalStack=0;resizeParent=1;resizeParentMax=0;resizeLast=0;collapsible=1;marginBottom=0;align=center;html=1;" parent="4nAqYtcEqPQkLTeRdLgU-257" vertex="1">
          <mxGeometry x="190" y="200" width="140" height="60" as="geometry" />
        </mxCell>
        <mxCell id="4nAqYtcEqPQkLTeRdLgU-279" value="String" style="text;strokeColor=none;fillColor=none;align=left;verticalAlign=middle;spacingLeft=4;spacingRight=4;overflow=hidden;points=[[0,0.5],[1,0.5]];portConstraint=eastwest;rotatable=0;html=1;" parent="4nAqYtcEqPQkLTeRdLgU-278" vertex="1">
          <mxGeometry y="30" width="140" height="30" as="geometry" />
        </mxCell>
        <mxCell id="4nAqYtcEqPQkLTeRdLgU-280" value="SubmittedBy" style="swimlane;fontStyle=0;childLayout=stackLayout;horizontal=1;startSize=30;horizontalStack=0;resizeParent=1;resizeParentMax=0;resizeLast=0;collapsible=1;marginBottom=0;align=center;html=1;" parent="4nAqYtcEqPQkLTeRdLgU-257" vertex="1">
          <mxGeometry x="350" y="200" width="140" height="60" as="geometry" />
        </mxCell>
        <mxCell id="4nAqYtcEqPQkLTeRdLgU-281" value="String" style="text;strokeColor=none;fillColor=none;align=left;verticalAlign=middle;spacingLeft=4;spacingRight=4;overflow=hidden;points=[[0,0.5],[1,0.5]];portConstraint=eastwest;rotatable=0;html=1;" parent="4nAqYtcEqPQkLTeRdLgU-280" vertex="1">
          <mxGeometry y="30" width="140" height="30" as="geometry" />
        </mxCell>
        <mxCell id="4nAqYtcEqPQkLTeRdLgU-283" value="Image" style="swimlane;fontStyle=0;childLayout=stackLayout;horizontal=1;startSize=30;horizontalStack=0;resizeParent=1;resizeParentMax=0;resizeLast=0;collapsible=1;marginBottom=0;align=center;html=1;" parent="4nAqYtcEqPQkLTeRdLgU-257" vertex="1">
          <mxGeometry x="30" y="300" width="140" height="60" as="geometry" />
        </mxCell>
        <mxCell id="4nAqYtcEqPQkLTeRdLgU-284" value="Blob" style="text;strokeColor=none;fillColor=none;align=left;verticalAlign=middle;spacingLeft=4;spacingRight=4;overflow=hidden;points=[[0,0.5],[1,0.5]];portConstraint=eastwest;rotatable=0;html=1;" parent="4nAqYtcEqPQkLTeRdLgU-283" vertex="1">
          <mxGeometry y="30" width="140" height="30" as="geometry" />
        </mxCell>
        <mxCell id="4nAqYtcEqPQkLTeRdLgU-285" value="Issue" style="swimlane;align=center;html=1;" parent="4nAqYtcEqPQkLTeRdLgU-252" vertex="1">
          <mxGeometry x="770" y="50" width="440" height="310" as="geometry" />
        </mxCell>
        <mxCell id="4nAqYtcEqPQkLTeRdLgU-290" value="Issue Type (Enumerated)" style="swimlane;fontStyle=0;childLayout=stackLayout;horizontal=1;startSize=30;horizontalStack=0;resizeParent=1;resizeParentMax=0;resizeLast=0;collapsible=1;marginBottom=0;align=center;html=1;" parent="4nAqYtcEqPQkLTeRdLgU-285" vertex="1">
          <mxGeometry x="20" y="60" width="180" height="90" as="geometry" />
        </mxCell>
        <mxCell id="4nAqYtcEqPQkLTeRdLgU-291" value="Wrong Information" style="text;strokeColor=none;fillColor=none;align=left;verticalAlign=middle;spacingLeft=4;spacingRight=4;overflow=hidden;points=[[0,0.5],[1,0.5]];portConstraint=eastwest;rotatable=0;html=1;" parent="4nAqYtcEqPQkLTeRdLgU-290" vertex="1">
          <mxGeometry y="30" width="180" height="30" as="geometry" />
        </mxCell>
        <mxCell id="4nAqYtcEqPQkLTeRdLgU-292" value="System Issue" style="text;strokeColor=none;fillColor=none;align=left;verticalAlign=middle;spacingLeft=4;spacingRight=4;overflow=hidden;points=[[0,0.5],[1,0.5]];portConstraint=eastwest;rotatable=0;html=1;" parent="4nAqYtcEqPQkLTeRdLgU-290" vertex="1">
          <mxGeometry y="60" width="180" height="30" as="geometry" />
        </mxCell>
        <mxCell id="4nAqYtcEqPQkLTeRdLgU-293" value="Issue" style="swimlane;fontStyle=0;childLayout=stackLayout;horizontal=1;startSize=30;horizontalStack=0;resizeParent=1;resizeParentMax=0;resizeLast=0;collapsible=1;marginBottom=0;align=center;html=1;" parent="4nAqYtcEqPQkLTeRdLgU-285" vertex="1">
          <mxGeometry x="235" y="60" width="180" height="60" as="geometry" />
        </mxCell>
        <mxCell id="4nAqYtcEqPQkLTeRdLgU-294" value="String" style="text;strokeColor=none;fillColor=none;align=left;verticalAlign=middle;spacingLeft=4;spacingRight=4;overflow=hidden;points=[[0,0.5],[1,0.5]];portConstraint=eastwest;rotatable=0;html=1;" parent="4nAqYtcEqPQkLTeRdLgU-293" vertex="1">
          <mxGeometry y="30" width="180" height="30" as="geometry" />
        </mxCell>
        <mxCell id="PArua5RoQVsWphFj8Fam-2" value="Image Viewer" style="swimlane;fontStyle=0;childLayout=stackLayout;horizontal=1;startSize=30;horizontalStack=0;resizeParent=1;resizeParentMax=0;resizeLast=0;collapsible=1;marginBottom=0;align=center;html=1;" vertex="1" parent="1">
          <mxGeometry x="450" y="505" width="140" height="90" as="geometry" />
        </mxCell>
        <mxCell id="PArua5RoQVsWphFj8Fam-3" value="Image" style="text;strokeColor=none;fillColor=none;align=left;verticalAlign=middle;spacingLeft=4;spacingRight=4;overflow=hidden;points=[[0,0.5],[1,0.5]];portConstraint=eastwest;rotatable=0;html=1;" vertex="1" parent="PArua5RoQVsWphFj8Fam-2">
          <mxGeometry y="30" width="140" height="30" as="geometry" />
        </mxCell>
        <mxCell id="PArua5RoQVsWphFj8Fam-4" value="Close" style="text;strokeColor=none;fillColor=none;align=left;verticalAlign=middle;spacingLeft=4;spacingRight=4;overflow=hidden;points=[[0,0.5],[1,0.5]];portConstraint=eastwest;rotatable=0;html=1;" vertex="1" parent="PArua5RoQVsWphFj8Fam-2">
          <mxGeometry y="60" width="140" height="30" as="geometry" />
        </mxCell>
        <mxCell id="PArua5RoQVsWphFj8Fam-6" style="edgeStyle=orthogonalEdgeStyle;rounded=0;orthogonalLoop=1;jettySize=auto;html=1;startArrow=classic;startFill=1;" edge="1" parent="1" source="PArua5RoQVsWphFj8Fam-1" target="PArua5RoQVsWphFj8Fam-2">
          <mxGeometry relative="1" as="geometry" />
        </mxCell>
      </root>
    </mxGraphModel>
  </diagram>
</mxfile>
